<?xml version="1.0" encoding="UTF-8" standalone="no"?>
<!DOCTYPE svg PUBLIC "-//W3C//DTD SVG 1.1//EN" "http://www.w3.org/Graphics/SVG/1.1/DTD/svg11.dtd">
<svg width="100%" height="100%" viewBox="0 0 2000 2000" version="1.1" xmlns="http://www.w3.org/2000/svg" xmlns:xlink="http://www.w3.org/1999/xlink" xml:space="preserve" xmlns:serif="http://www.serif.com/" style="fill-rule:evenodd;clip-rule:evenodd;stroke-linecap:round;stroke-linejoin:round;stroke-miterlimit:1.5;">
    <rect id="Artboard1" x="0" y="0" width="2000" height="2000" style="fill:none;"/>
    <g id="Artboard11" serif:id="Artboard1">
        <g transform="matrix(1.27469,0,0,1.14862,-286.625,-36.6779)">
            <path d="M1375.38,491.619C1375.38,475.752 1363.79,462.889 1349.49,462.889L669.231,462.889C654.933,462.889 643.343,475.752 643.343,491.619C643.343,649.096 643.343,1406.18 643.343,1563.66C643.343,1579.53 654.933,1592.39 669.231,1592.39C782.757,1592.39 1235.96,1592.39 1349.49,1592.39C1356.35,1592.39 1362.94,1589.37 1367.79,1583.98C1372.65,1578.59 1375.38,1571.28 1375.38,1563.66L1375.38,491.619Z" style="fill:none;stroke:rgb(9,66,106);stroke-width:9.85px;"/>
        </g>
        <g transform="matrix(1.08,0,0,0.999898,-88.64,-80.1841)">
            <path d="M576,1548L780,1548" style="fill:none;stroke:rgb(9,66,106);stroke-width:11.48px;"/>
        </g>
        <g transform="matrix(1.08,0,0,0.999898,-89.0676,-44.1878)">
            <path d="M576,1548L780,1548" style="fill:none;stroke:rgb(9,66,106);stroke-width:11.48px;stroke-dasharray:2.3,21.81,0,0;"/>
        </g>
        <g transform="matrix(1.08,0,0,0.999898,-88.64,-80.1841)">
            <path d="M852,1548L1163.21,1548" style="fill:none;stroke:rgb(9,66,106);stroke-width:11.48px;"/>
        </g>
        <g transform="matrix(1.08,0,0,0.999898,-89.0676,-44.1878)">
            <path d="M852,1548L1163.21,1548" style="fill:none;stroke:rgb(9,66,106);stroke-width:11.48px;stroke-dasharray:2.3,21.81,0,0;"/>
        </g>
        <g transform="matrix(1.08,0,0,0.999898,-88.64,-80.1841)">
            <path d="M1236,1548L1440,1548" style="fill:none;stroke:rgb(9,66,106);stroke-width:11.48px;"/>
        </g>
        <g transform="matrix(1.08,0,0,0.999898,-89.0676,-44.1878)">
            <path d="M1236,1548L1440,1548" style="fill:none;stroke:rgb(9,66,106);stroke-width:11.48px;stroke-dasharray:2.3,21.81,0,0;"/>
        </g>
        <g transform="matrix(1.27469,0,0,0.637383,-286.625,199.968)">
            <path d="M1215.24,1593.57C1215.24,1593.57 1274.28,1593.14 1320.66,1592.79C1350.91,1592.57 1375.38,1543.47 1375.38,1482.97C1375.38,1244.84 1375.38,687.16 1375.38,514.663C1375.38,486.069 1363.79,462.889 1349.49,462.889C1235.96,462.889 782.757,462.889 669.231,462.889C654.933,462.889 643.343,486.069 643.343,514.663C643.343,687.062 643.343,1244.21 643.343,1482.57C643.343,1543.22 667.929,1592.39 698.258,1592.39L805.17,1592.39" style="fill:none;stroke:rgb(9,66,106);stroke-width:11.86px;"/>
        </g>
        <g transform="matrix(1.27469,0,0,0.637383,-286.625,199.968)">
            <path d="M889.896,1593.57L1129.67,1592.39" style="fill:none;stroke:rgb(9,66,106);stroke-width:11.86px;"/>
        </g>
        <g transform="matrix(1.6739,0,0,1.54975,-665.284,-765.351)">
            <rect x="851.599" y="1240.06" width="39.774" height="70.002" style="fill:none;stroke:rgb(9,66,106);stroke-width:7.41px;"/>
        </g>
        <g transform="matrix(1.6739,0,0,1.54975,-251.42,-765.351)">
            <rect x="851.599" y="1240.06" width="39.774" height="70.002" style="fill:none;stroke:rgb(9,66,106);stroke-width:7.41px;"/>
        </g>
        <g transform="matrix(2.64972,0,0,2.45319,-1515.7,-1917.3)">
            <rect x="851.599" y="1240.06" width="39.774" height="70.002" style="fill:none;stroke:rgb(9,66,106);stroke-width:4.68px;"/>
        </g>
        <g transform="matrix(2.64972,0,0,2.45319,-1101.83,-1917.3)">
            <rect x="851.599" y="1240.06" width="39.774" height="70.002" style="fill:none;stroke:rgb(9,66,106);stroke-width:4.68px;"/>
        </g>
        <g transform="matrix(0.81,0,0,1.02685,131.68,182.442)">
            <rect x="768" y="690" width="96" height="227.859" style="fill:none;stroke:rgb(9,66,106);stroke-width:12.92px;"/>
        </g>
        <g transform="matrix(0.81,0,0,1.02685,545.545,182.442)">
            <rect x="768" y="690" width="96" height="227.859" style="fill:none;stroke:rgb(9,66,106);stroke-width:12.92px;"/>
        </g>
        <g transform="matrix(1.08,0,0,0.999898,-88.64,207.035)">
            <path d="M780,1089.61L780,1296C780,1296 796,1330 816,1330C836,1330 852,1296 852,1296L852,1090" style="fill:none;stroke:rgb(9,66,106);stroke-width:11.48px;"/>
        </g>
        <g transform="matrix(1.08,0,0,0.999898,325.225,207.035)">
            <path d="M780,1089.61L780,1296C780,1296 796,1330 816,1330C836,1330 852,1296 852,1296L852,1090" style="fill:none;stroke:rgb(9,66,106);stroke-width:11.48px;"/>
        </g>
        <g transform="matrix(1.08,0,0,0.999898,-71.36,227.033)">
            <circle cx="800" cy="832" r="18" style="fill:none;stroke:rgb(9,66,106);stroke-width:11.48px;"/>
        </g>
        <g transform="matrix(1.08,0,0,0.999898,342.505,227.033)">
            <circle cx="800" cy="832" r="18" style="fill:none;stroke:rgb(9,66,106);stroke-width:11.48px;"/>
        </g>
        <g transform="matrix(1.08,0,0,0.999898,-71.36,119.044)">
            <circle cx="800" cy="832" r="18" style="fill:none;stroke:rgb(9,66,106);stroke-width:11.48px;"/>
        </g>
        <g transform="matrix(1.08,0,0,0.999898,342.505,119.044)">
            <circle cx="800" cy="832" r="18" style="fill:none;stroke:rgb(9,66,106);stroke-width:11.48px;"/>
        </g>
        <g transform="matrix(1.33,0,0,0.743013,-340.64,67.0009)">
            <path d="M939.789,575.249C939.789,575.249 942.515,562.094 946.876,541.044C956.475,494.71 981.098,463.856 1008.71,463.57C1036.31,463.283 1061.13,493.624 1071.03,539.755C1075.71,561.556 1078.65,575.249 1078.65,575.249" style="fill:none;stroke:rgb(9,66,106);stroke-width:11.09px;"/>
        </g>
        <g transform="matrix(1.08,0,0,0.79962,-88.64,34.9076)">
            <path d="M888,574.661C888,574.661 888,574.659 888.001,574.655C898.472,496.239 949.005,439.195 1008,439.195C1067,439.195 1117.53,496.239 1128,574.655C1128,574.659 1128,574.661 1128,574.661" style="fill:none;stroke:rgb(9,66,106);stroke-width:12.57px;"/>
        </g>
        <g transform="matrix(1.35,0,0,1.00008,-380.24,-80.2359)">
            <path d="M1080.01,490.573C1080.01,490.573 1165.52,310.111 1175.13,289.844C1175.67,288.695 1176.61,288 1177.62,288C1189.34,288 1261.33,288 1286.95,288C1288.83,288 1290.57,289.345 1291.51,291.534C1292.46,293.722 1292.47,296.424 1291.55,298.629C1269.83,350.511 1176,574.661 1176,574.661" style="fill:none;stroke:rgb(9,66,106);stroke-width:10.06px;"/>
        </g>
        <g transform="matrix(-1.35,0,0,1.00008,2381.63,-80.398)">
            <path d="M1079.73,490.736C1079.73,490.736 1165.51,310.101 1175.13,289.841C1175.67,288.694 1176.61,288 1177.62,288L1286.95,288C1288.83,288 1290.57,289.345 1291.51,291.534C1292.46,293.722 1292.47,296.424 1291.55,298.629C1269.83,350.511 1176,574.661 1176,574.661" style="fill:none;stroke:rgb(9,66,106);stroke-width:10.06px;"/>
        </g>
        <g transform="matrix(1.35,0,0,1.00008,-380.24,-80.2359)">
            <path d="M1292.62,293.536L1320,574.661" style="fill:none;stroke:rgb(9,66,106);stroke-width:10.06px;"/>
        </g>
        <g transform="matrix(-1.35,0,0,1.00008,2381.63,-80.398)">
            <path d="M1292.62,293.536L1320,574.661" style="fill:none;stroke:rgb(9,66,106);stroke-width:10.06px;"/>
        </g>
        <g transform="matrix(1.35,0,0,1.00008,-380.24,-80.2359)">
            <path d="M1200,519L1206,574.661" style="fill:none;stroke:rgb(9,66,106);stroke-width:10.06px;"/>
        </g>
        <g transform="matrix(-1.35,0,0,1.00008,2381.63,-80.398)">
            <path d="M1200,519L1206,574.661" style="fill:none;stroke:rgb(9,66,106);stroke-width:10.06px;"/>
        </g>
        <g transform="matrix(1.08,0,0,0.922817,-88.64,-35.8372)">
            <path d="M1063.56,511.708L1028,574" style="fill:none;stroke:rgb(9,66,106);stroke-width:11.89px;"/>
        </g>
        <g transform="matrix(-1.08,0,0,0.922817,2090.03,-35.9994)">
            <path d="M1062.99,516.218L1028,574" style="fill:none;stroke:rgb(9,66,106);stroke-width:11.89px;"/>
        </g>
        <g transform="matrix(1.08,0,0,0.999898,-88.64,-80.1841)">
            <rect x="876" y="684" width="264" height="96" style="fill:none;stroke:rgb(9,66,106);stroke-width:11.48px;stroke-dasharray:1.15,21.81,0,0;"/>
        </g>
        <g transform="matrix(1.27636,0,0,1.49985,-286.575,-446.147)">
            <rect x="876" y="684" width="264" height="96" style="fill:none;stroke:rgb(9,66,106);stroke-width:8.58px;"/>
        </g>
        <g transform="matrix(1.08,0,0,0.999898,-88.64,-80.1841)">
            <path d="M1485,1295.25C1485,1295.25 1578,1332 1578,1380C1578,1409.34 1440,1440 1440,1440" style="fill:none;stroke:rgb(9,66,106);stroke-width:11.48px;"/>
        </g>
        <g transform="matrix(-1.08,0,0,0.999898,2088.64,-80.1841)">
            <path d="M1485,1295.25C1485,1295.25 1578,1332 1578,1380C1578,1409.34 1440,1440 1440,1440" style="fill:none;stroke:rgb(9,66,106);stroke-width:11.48px;"/>
        </g>
        <g transform="matrix(1.08,0,0,0.999898,-88.64,-80.1841)">
            <path d="M1440,604L1452,726L1470,1008L1488,1428" style="fill:none;stroke:rgb(9,66,106);stroke-width:11.48px;"/>
        </g>
        <g transform="matrix(-1.08,0,0,0.999898,2088.64,-80.1841)">
            <path d="M1440,604L1452,726L1470,1008L1488,1428" style="fill:none;stroke:rgb(9,66,106);stroke-width:11.48px;"/>
        </g>
        <g transform="matrix(1.08,0,0,0.999898,-88.64,-80.1841)">
            <path d="M1482.49,1272C1482.49,1272 1608,1320 1608,1380C1608,1428 1440,1464 1440,1464" style="fill:none;stroke:rgb(9,66,106);stroke-width:11.48px;"/>
        </g>
        <g transform="matrix(-1.08,0,0,0.999898,2088.64,-80.1841)">
            <path d="M1482.49,1272C1482.49,1272 1608,1320 1608,1380C1608,1428 1440,1464 1440,1464" style="fill:none;stroke:rgb(9,66,106);stroke-width:11.48px;"/>
        </g>
        <g transform="matrix(1.08,0,0,0.999898,-88.64,-80.1841)">
            <path d="M1606,1390L1530,1632L1474,1786C1449.84,1852.45 1430,1864 1430,1864" style="fill:none;stroke:rgb(9,66,106);stroke-width:11.48px;"/>
        </g>
        <g transform="matrix(-1.08,0,0,0.999898,2088.64,-80.1841)">
            <path d="M1606,1390L1530,1632L1474,1786C1449.84,1852.45 1430,1864 1430,1864" style="fill:none;stroke:rgb(9,66,106);stroke-width:11.48px;"/>
        </g>
        <g transform="matrix(1.08,0,0,0.999898,-82.1113,-79.6096)">
            <path d="M1048.95,574.851L1072.33,534.967" style="fill:none;stroke:rgb(9,66,106);stroke-width:11.48px;stroke-dasharray:2.3,21.81,0,0;"/>
        </g>
        <g transform="matrix(-1.08,0,0,0.999898,2083.51,-79.7717)">
            <path d="M1048.95,574.851L1071.76,538.202" style="fill:none;stroke:rgb(9,66,106);stroke-width:11.48px;stroke-dasharray:2.3,21.81,0,0;"/>
        </g>
        <g transform="matrix(1.08,0,0,0.999898,-81.08,-79.6096)">
            <path d="M1092,504L1218,288" style="fill:none;stroke:rgb(9,66,106);stroke-width:11.48px;stroke-dasharray:2.3,21.81,0,0;"/>
        </g>
        <g transform="matrix(-1.08,0,0,0.999898,2082.47,-79.7717)">
            <path d="M1092,504L1218,288" style="fill:none;stroke:rgb(9,66,106);stroke-width:11.48px;stroke-dasharray:2.3,21.81,0,0;"/>
        </g>
        <g transform="matrix(1.08,0,0,0.999898,-91.88,-80.8083)">
            <path d="M1179,573.624L1329,289.199" style="fill:none;stroke:rgb(9,66,106);stroke-width:11.48px;stroke-dasharray:2.3,21.81,0,0;"/>
        </g>
        <g transform="matrix(-1.08,0,0,0.999898,2093.27,-80.9705)">
            <path d="M1179,573.624L1329,289.199" style="fill:none;stroke:rgb(9,66,106);stroke-width:11.48px;stroke-dasharray:2.3,21.81,0,0;"/>
        </g>
        <g transform="matrix(1.116,0,0,0.975812,-141.992,-61.4537)">
            <path d="M1332,321L1360.07,570.434" style="fill:none;stroke:rgb(9,66,106);stroke-width:11.4px;stroke-dasharray:2.28,21.66,0,0;"/>
        </g>
        <g transform="matrix(-1.116,0,0,0.975812,2143.39,-61.6159)">
            <path d="M1332,321L1360.07,570.434" style="fill:none;stroke:rgb(9,66,106);stroke-width:11.4px;stroke-dasharray:2.28,21.66,0,0;"/>
        </g>
        <g transform="matrix(1.08,0,0,0.999898,-78.92,-80.1841)">
            <path d="M1237,488L1251,574.124" style="fill:none;stroke:rgb(9,66,106);stroke-width:11.48px;stroke-dasharray:2.3,21.81,0,0;"/>
        </g>
        <g transform="matrix(-1.08,0,0,0.999898,2080.31,-80.3462)">
            <path d="M1237,488L1251,574.124" style="fill:none;stroke:rgb(9,66,106);stroke-width:11.48px;stroke-dasharray:2.3,21.81,0,0;"/>
        </g>
    </g>
</svg>
