<?xml version="1.0" encoding="UTF-8" standalone="no"?>
<!DOCTYPE svg PUBLIC "-//W3C//DTD SVG 1.1//EN" "http://www.w3.org/Graphics/SVG/1.1/DTD/svg11.dtd">
<svg width="100%" height="100%" viewBox="0 0 2000 2000" version="1.1" xmlns="http://www.w3.org/2000/svg" xmlns:xlink="http://www.w3.org/1999/xlink" xml:space="preserve" xmlns:serif="http://www.serif.com/" style="fill-rule:evenodd;clip-rule:evenodd;stroke-linecap:round;stroke-linejoin:round;stroke-miterlimit:1.5;">
    <rect id="Artboard1" x="0" y="0" width="2000" height="2000" style="fill:none;"/>
    <g id="Artboard11" serif:id="Artboard1">
        <g transform="matrix(1,0,0,1.02655,-48,-44.6018)">
            <rect x="288" y="432" width="1440" height="1152" style="fill:rgb(104,162,185);stroke:rgb(9,66,106);stroke-width:11.84px;"/>
        </g>
        <g transform="matrix(1,0,0,1.02655,-48,-44.6018)">
            <path d="M1008,1583.56L1008,1584C1072.83,1560.34 1136.74,1546.93 1200,1536C1354.46,1509.31 1505.1,1510.86 1656,1512L1656,384C1441.62,381.753 1226.88,361.434 1008,432.129" style="fill:white;stroke:rgb(9,66,106);stroke-width:11.84px;"/>
        </g>
        <g transform="matrix(-1,0,0,1.02655,1968,-44.6018)">
            <path d="M1008,1584C1072.83,1560.34 1136.74,1546.93 1200,1536C1354.46,1509.31 1505.1,1510.86 1656,1512L1656,384C1441.62,381.753 1226.88,361.305 1008,432L1008,432.129" style="fill:white;stroke:rgb(9,66,106);stroke-width:11.84px;"/>
        </g>
        <g transform="matrix(1.02564,0,0,1.02655,-59.0769,-44.6018)">
            <path d="M432,576L900,576" style="fill:none;stroke:rgb(9,66,106);stroke-width:17.49px;"/>
        </g>
        <g transform="matrix(0.923077,0,0,1.02655,-14.7692,29.3097)">
            <path d="M432,576L900,576" style="fill:none;stroke:rgb(9,66,106);stroke-width:18.38px;"/>
        </g>
        <g transform="matrix(1.02564,0,0,1.02655,-59.0769,103.221)">
            <path d="M432,576L900,576" style="fill:none;stroke:rgb(9,66,106);stroke-width:17.49px;"/>
        </g>
        <g transform="matrix(0.769231,0,0,1.02655,51.6923,177.133)">
            <path d="M432,576L900,576" style="fill:none;stroke:rgb(9,66,106);stroke-width:19.78px;"/>
        </g>
        <g transform="matrix(1.02564,0,0,1.02655,-59.0769,251.044)">
            <path d="M432,576L900,576" style="fill:none;stroke:rgb(9,66,106);stroke-width:17.49px;"/>
        </g>
        <g transform="matrix(0.923077,0,0,1.02655,-14.7692,324.956)">
            <path d="M432,576L900,576" style="fill:none;stroke:rgb(9,66,106);stroke-width:18.38px;"/>
        </g>
        <g transform="matrix(1.02564,0,0,1.02655,-59.0769,398.867)">
            <path d="M432,576L900,576" style="fill:none;stroke:rgb(9,66,106);stroke-width:17.49px;"/>
        </g>
        <g transform="matrix(0.769231,0,0,1.02655,51.6923,472.779)">
            <path d="M432,576L900,576" style="fill:none;stroke:rgb(9,66,106);stroke-width:19.78px;"/>
        </g>
        <g transform="matrix(1.02564,0,0,1.02655,-59.0769,546.69)">
            <path d="M432,576L900,576" style="fill:none;stroke:rgb(9,66,106);stroke-width:17.49px;"/>
        </g>
        <g transform="matrix(0.615385,0,0,1.02655,118.154,620.602)">
            <path d="M432,576L900,576" style="fill:none;stroke:rgb(9,66,106);stroke-width:21.2px;"/>
        </g>
        <g transform="matrix(1.02564,0,0,1.02655,612.923,-44.6018)">
            <path d="M432,576L900,576" style="fill:none;stroke:rgb(9,66,106);stroke-width:17.49px;"/>
        </g>
        <g transform="matrix(0.923077,0,0,1.02655,657.231,29.3097)">
            <path d="M432,576L900,576" style="fill:none;stroke:rgb(9,66,106);stroke-width:18.38px;"/>
        </g>
        <g transform="matrix(1.02564,0,0,1.02655,612.923,103.221)">
            <path d="M432,576L900,576" style="fill:none;stroke:rgb(9,66,106);stroke-width:17.49px;"/>
        </g>
        <g transform="matrix(0.769231,0,0,1.02655,723.692,177.133)">
            <path d="M432,576L900,576" style="fill:none;stroke:rgb(9,66,106);stroke-width:19.78px;"/>
        </g>
        <g transform="matrix(1.02564,0,0,1.02655,612.923,251.044)">
            <path d="M432,576L900,576" style="fill:none;stroke:rgb(9,66,106);stroke-width:17.49px;"/>
        </g>
        <g transform="matrix(0.923077,0,0,1.02655,657.231,324.956)">
            <path d="M432,576L900,576" style="fill:none;stroke:rgb(9,66,106);stroke-width:18.38px;"/>
        </g>
        <g transform="matrix(1.02564,0,0,1.02655,612.923,398.867)">
            <path d="M432,576L900,576" style="fill:none;stroke:rgb(9,66,106);stroke-width:17.49px;"/>
        </g>
        <g transform="matrix(0.769231,0,0,1.02655,723.692,472.779)">
            <path d="M432,576L900,576" style="fill:none;stroke:rgb(9,66,106);stroke-width:19.78px;"/>
        </g>
        <g transform="matrix(1.02564,0,0,1.02655,612.923,546.69)">
            <path d="M432,576L900,576" style="fill:none;stroke:rgb(9,66,106);stroke-width:17.49px;"/>
        </g>
        <g transform="matrix(0.615385,0,0,1.02655,790.154,620.602)">
            <path d="M432,576L900,576" style="fill:none;stroke:rgb(9,66,106);stroke-width:21.2px;"/>
        </g>
        <g transform="matrix(1,0,0,1,-48,-48)">
            <path d="M1296,336L1296,1728L1368,1680L1440,1728L1440,336L1296,336Z" style="fill:rgb(244,124,87);stroke:rgb(9,66,106);stroke-width:12px;"/>
        </g>
        <g transform="matrix(1,0.000276016,-0.000274619,0.994939,-47.7308,7.72608)">
            <path d="M1008,396L1008,1581.45" style="fill:none;stroke:rgb(9,66,106);stroke-width:11.99px;stroke-dasharray:2.4,22.77,0,0;"/>
        </g>
        <g transform="matrix(1,0,0,1.01327,-72,-3.82301)">
            <path d="M1344,288L1344,1644" style="fill:none;stroke:rgb(9,66,106);stroke-width:11.88px;stroke-dasharray:2.38,22.56,0,0;"/>
        </g>
        <g transform="matrix(1,0,0,1.01327,-24,-3.82301)">
            <path d="M1392,288L1392,1644" style="fill:none;stroke:rgb(9,66,106);stroke-width:11.88px;stroke-dasharray:2.38,22.56,0,0;"/>
        </g>
    </g>
</svg>
