<?xml version="1.0" encoding="UTF-8" standalone="no"?>
<!DOCTYPE svg PUBLIC "-//W3C//DTD SVG 1.1//EN" "http://www.w3.org/Graphics/SVG/1.1/DTD/svg11.dtd">
<svg width="100%" height="100%" viewBox="0 0 2000 2000" version="1.1" xmlns="http://www.w3.org/2000/svg" xmlns:xlink="http://www.w3.org/1999/xlink" xml:space="preserve" xmlns:serif="http://www.serif.com/" style="fill-rule:evenodd;clip-rule:evenodd;stroke-linecap:round;stroke-linejoin:round;stroke-miterlimit:1.5;">
    <rect id="Artboard1" x="0" y="0" width="2000" height="2000" style="fill:none;"/>
    <g id="Artboard11" serif:id="Artboard1">
        <g id="Layer1" transform="matrix(0.988258,0,0,0.988258,3.24658,52.5664)">
            <path d="M571.615,915.602L393.054,910.888C392.863,911.178 517.635,908.594 539.604,1048.83C561.574,1189.07 479.253,1252.98 392.605,1252.53C300.647,1252.05 210.597,1163.82 215.471,1040.77C220.344,917.722 293.677,847.315 355.423,832.319C417.169,817.322 545.123,815.941 585.946,950.789C609.059,1027.14 598.612,1132.24 601.053,1133.36C603.493,1134.49 1048.71,1130.1 1048.71,1130.1" style="fill:none;stroke:rgb(9,66,106);stroke-width:24.29px;"/>
            <path d="M421.544,825.535C421.544,825.535 727.732,862.247 1048.71,865.989C1251.13,868.349 1459.42,849.557 1600.53,825.535C1811.22,789.667 1815.04,1125.49 1818.09,1124.91C1821.14,1124.33 1260.08,1131.13 1260.08,1131.13" style="fill:none;stroke:rgb(9,66,106);stroke-width:24.29px;"/>
            <path d="M1755.07,1131.13C1755.07,1131.13 1744.7,1203.17 1638.03,1252.53C1586.72,1276.27 1379.66,1229.18 1092.53,1228.8C762.594,1228.37 405.566,1252.53 405.566,1252.53" style="fill:none;stroke:rgb(9,66,106);stroke-width:24.29px;"/>
            <g transform="matrix(1,0,0,0.99826,-5.39118,0.47369)">
                <path d="M1195.99,1229.92C1389.53,1028.33 1193.17,867.296 1193.17,867.296L955.512,866.263C955.102,869.552 1076.92,939.306 1076.72,1051.78C1076.6,1123.03 1058.91,1183.1 967.763,1228.88C965.949,1229.8 1194.29,1231.69 1195.99,1229.92Z" style="fill:rgb(105,186,201);stroke:rgb(9,66,106);stroke-width:20.26px;stroke-dasharray:4.05,33.02,0,0;"/>
            </g>
            <g transform="matrix(1.01055,0,0,1.08837,-13.3862,-75.0268)">
                <path d="M1077.74,865.23C1004.04,866.116 933.795,864.575 857.767,860.263L857.767,855.44L861.986,680.047L968.563,760.367L1077.74,675.364L1077.74,866.263" style="fill:rgb(105,186,201);stroke:rgb(9,66,106);stroke-width:19.17px;stroke-dasharray:3.83,28.76,0,0;"/>
            </g>
            <g transform="matrix(1.01188,0,0,1.01188,-3.28516,-53.191)">
                <path d="M812.598,900.775C949.937,909.855 1045.4,912.784 1185.22,907.636" style="fill:none;stroke:rgb(9,66,106);stroke-width:24px;"/>
            </g>
            <g transform="matrix(1.01188,0,0,1.01188,-3.28516,-53.191)">
                <path d="M926.722,1268.9C1024.97,1265.93 1117.01,1266.71 1222.78,1270.91" style="fill:none;stroke:rgb(9,66,106);stroke-width:23.9px;"/>
            </g>
        </g>
    </g>
</svg>
